<svg xmlns="http://www.w3.org/2000/svg" viewBox="0 0 100 80" fill="none">
  <defs>
    <linearGradient id="gold-grad-3" x1="0%" y1="0%" x2="100%" y2="100%">
      <stop offset="0%" stopColor="#DFC378"/>
      <stop offset="50%" stopColor="#C29B38"/>
      <stop offset="100%" stopColor="#8C6721"/>
    </linearGradient>
  </defs>
  <!-- 祥云仙鹤展翅云霄 -->
  <g fill="url(#gold-grad-3)" stroke="url(#gold-grad-3)">
    <!-- 鹤首长喙 -->
    <path d="M72 18 L88 12 L75 22 Z"/>
    <circle cx="73" cy="18" r="4.5"/>
    <!-- 鹤颈优雅S曲线 -->
    <path d="M71 21 C66 28 58 35 56 42" stroke-width="3.5" fill="none" stroke-linecap="round"/>
    <!-- 鹤身 -->
    <ellipse cx="50" cy="46" rx="14" ry="9" transform="rotate(-15 50 46)"/>
    <!-- 上扬大羽翼 -->
    <path d="M52 40 C56 22 66 10 78 4 C68 14 62 26 58 38 Z"/>
    <path d="M46 40 C46 20 54 8 64 2 C56 12 50 24 48 38 Z"/>
    <path d="M40 42 C38 24 42 12 50 8 C44 18 40 28 40 42 Z"/>
    <!-- 尾羽翎毛 -->
    <path d="M38 50 C26 56 16 58 8 56 C18 53 28 50 36 48 Z"/>
    <path d="M38 52 C28 62 18 68 8 68 C18 62 28 57 36 52 Z"/>
    <!-- 仙鹤细长双足 -->
    <path d="M44 54 L28 76 M46 54 L34 76" stroke-width="2" fill="none" stroke-linecap="round"/>
    <!-- 爪尖 -->
    <path d="M28 76 L22 78 M34 76 L28 78" stroke-width="1.8" stroke-linecap="round"/>
    <!-- 随身小祥云 -->
    <path d="M60 62 C58 58 64 56 67 60 C71 56 76 58 76 64 C76 68 68 72 63 71 C58 71 56 66 60 62 Z" opacity="0.8"/>
  </g>
</svg>
